PathFileType	4	(X/Y/Z)	jw_ngait_og1_rotated.trc
DataRate	CameraRate	NumFrames	NumMarkers	Units	OrigDataRate	OrigDataStartFrame	OrigNumFrames
120.000000	120.000000	5	56	mm	120.000000	246	327
Frame#	Time	Sternum			Neck			RShoulder			LShoulder			Xiphoid			Thoracic			RAsis			LAsis			RPsis			LPsis			Lumbar			RElbow			RWrist			RRadius			RUlna			LElbow			LWrist			LUlna			LRadius			LThighSuperior			LThighInferior			LThighLateral			LPatella			LShankSuperior			LShankInferior			LShankLateral			RThighSuperior			RThighInferior			RThighLateral			RPatella			RShankSuperior			RShankInferior			RShankLateral			RHeel			RToe			RMidfootMedial			RMidfootLateral			RHindfoot			RMidfootSuperior			RToeMedial			RToeLateral			LHeel			LToe			LMidfootMedial			LMidfootLateral			LHindfoot			LMidfootSuperior			LToeMedial			LToeLateral			LShoulderCenter			Oglobal			RShoulderCenter			Sacral			Xglobal			Yglobal			Zglobal			
		X1	Y1	Z1	X2	Y2	Z2	X3	Y3	Z3	X4	Y4	Z4	X5	Y5	Z5	X6	Y6	Z6	X7	Y7	Z7	X8	Y8	Z8	X9	Y9	Z9	X10	Y10	Z10	X11	Y11	Z11	X12	Y12	Z12	X13	Y13	Z13	X14	Y14	Z14	X15	Y15	Z15	X16	Y16	Z16	X17	Y17	Z17	X18	Y18	Z18	X19	Y19	Z19	X20	Y20	Z20	X21	Y21	Z21	X22	Y22	Z22	X23	Y23	Z23	X24	Y24	Z24	X25	Y25	Z25	X26	Y26	Z26	X27	Y27	Z27	X28	Y28	Z28	X29	Y29	Z29	X30	Y30	Z30	X31	Y31	Z31	X32	Y32	Z32	X33	Y33	Z33	X34	Y34	Z34	X35	Y35	Z35	X36	Y36	Z36	X37	Y37	Z37	X38	Y38	Z38	X39	Y39	Z39	X40	Y40	Z40	X41	Y41	Z41	X42	Y42	Z42	X43	Y43	Z43	X44	Y44	Z44	X45	Y45	Z45	X46	Y46	Z46	X47	Y47	Z47	X48	Y48	Z48	X49	Y49	Z49	X50	Y50	Z50	X51	Y51	Z51	X52	Y52	Z52	X53	Y53	Z53	X54	Y54	Z54	X55	Y55	Z55	X56	Y56	Z56	

246.00000	3.00000	-900.30426	1340.53735	-171.22754	-762.26776	1449.25964	-170.77968	-816.20343	1391.29126	-347.49533	-829.48108	1404.96008	15.48590	-898.79541	1223.31116	-161.59172	-677.51721	1258.62720	-145.83914	-885.33105	997.38257	-283.78189	-882.50183	983.99548	-10.95343	-672.27917	971.58624	-165.89784	-671.02863	969.68842	-106.20505	-674.89136	1040.42480	-140.48955	-737.44183	1063.92590	-423.45697	-812.75171	807.60248	-411.16315	-831.97894	815.35303	-376.46591	-764.51050	808.56757	-406.24075	-790.42200	1083.34729	108.04156	-907.65625	834.27948	113.09111	-858.76764	822.00720	110.48071	-916.16272	858.97968	76.78104	-835.51154	795.57050	38.29429	-869.50989	546.02423	26.18401	-915.11438	666.02832	7.30712	-898.00006	445.19296	-17.90119	-783.50525	435.09424	21.33519	-572.95258	295.76971	-12.99883	-703.11584	334.84134	-50.45178	-865.60596	801.22809	-312.79724	-954.30707	582.13824	-264.46634	-972.53027	684.46698	-248.18486	-997.89655	522.40918	-217.11580	-904.00879	387.16577	-284.90549	-934.71509	157.34486	-234.96413	-968.25867	262.14841	-197.29643	-847.20691	47.44834	-191.09593	-1143.27795	49.85390	-244.49783	-1068.53625	40.22997	-176.98828	-1036.37134	45.28365	-287.17618	-957.64288	24.57822	-274.54788	-1015.77539	110.00789	-218.31555	-1106.64465	39.01672	-195.84264	-1095.60730	45.64505	-282.72641	-444.20905	320.30450	-75.00852	-512.15900	31.57896	-48.60423	-496.08771	114.08590	-114.28687	-450.06155	122.13111	1.26469	-418.95609	216.40083	-21.92422	-535.71594	169.76140	-35.29721	-507.92389	69.67491	-91.37228	-471.65686	75.50584	-10.64079	-803.31476	1359.16870	7.50857	0.00000	0.00000	0.00000	-792.22028	1346.75684	-344.10995	-671.65393	970.63733	-136.05145	200.00000	0.00000	0.00000	0.00000	0.00000	-200.00000	0.00000	200.00000	0.00000
247.00000	3.00833	-911.28290	1342.09619	-171.17117	-773.59216	1451.27368	-170.73508	-827.77600	1393.40588	-347.69434	-839.88684	1405.89990	15.56014	-909.55768	1224.66455	-162.09106	-688.07196	1260.83923	-147.06967	-895.28992	998.30542	-283.97855	-891.67957	985.33221	-11.32782	-681.90930	973.95563	-167.59978	-680.31049	971.99268	-107.96291	-684.71423	1042.69214	-141.39198	-747.92560	1066.76428	-424.62097	-822.92926	810.13806	-412.05508	-842.29980	818.20172	-377.53458	-774.97839	811.16980	-407.25568	-798.26672	1084.42200	107.03665	-912.26343	833.61359	111.86126	-862.99744	821.97858	108.99487	-921.47791	858.10480	75.77335	-848.32898	797.47540	37.43446	-891.58093	549.29639	24.47706	-932.90491	669.66077	4.39632	-921.52484	448.84631	-21.03629	-808.07391	436.96811	19.67103	-595.90448	299.79483	-13.38953	-727.82599	338.41803	-50.77263	-874.54144	802.66003	-313.51849	-959.08783	581.79974	-264.55188	-978.98029	683.72015	-247.98354	-1001.52258	521.53235	-216.93271	-906.78204	387.38785	-284.93015	-935.27515	157.14571	-234.91867	-969.67926	261.82159	-197.06506	-847.12708	47.33569	-190.99051	-1143.19983	49.61132	-244.34839	-1068.44861	39.81872	-176.91528	-1036.28259	45.17688	-287.08847	-957.72461	24.62489	-274.51773	-1015.92688	109.81788	-218.09583	-1106.82361	38.87852	-195.75818	-1095.70239	45.54479	-282.65729	-463.09915	324.42218	-69.37800	-539.63733	36.25237	-55.97395	-518.31366	121.09600	-118.06190	-478.35886	124.21250	-0.03987	-443.09448	217.81633	-18.13936	-560.39911	175.71982	-39.56381	-532.76636	76.26128	-96.59672	-500.52505	78.22278	-14.29579	-813.75531	1360.48096	7.29744	0.00000	0.00000	0.00000	-803.79980	1349.20776	-344.39352	-681.10986	972.97412	-137.78134	200.00000	0.00000	0.00000	0.00000	0.00000	-200.00000	0.00000	200.00000	0.00000
248.00000	3.01667	-922.35095	1343.44238	-171.11050	-784.93579	1453.16077	-170.75720	-839.60645	1395.68030	-347.69363	-850.27130	1406.79150	15.70924	-920.07648	1226.15674	-162.23512	-698.59570	1262.83752	-148.44815	-905.55908	999.60522	-284.39148	-900.58936	986.48462	-11.61142	-691.47180	976.07745	-169.42429	-689.57568	974.04004	-109.81789	-694.48053	1044.74695	-142.70923	-758.58673	1069.50415	-425.79141	-833.26874	812.96960	-413.08759	-852.55768	820.59338	-378.37360	-785.18201	813.74738	-408.41122	-806.23285	1085.05261	105.67332	-916.76630	832.62579	110.46333	-867.62793	821.67810	107.28416	-925.52740	856.71893	73.77513	-860.79358	799.38617	36.59475	-913.65234	553.10693	22.45435	-950.54004	673.68262	0.99341	-945.00732	453.13177	-24.28684	-832.02191	439.58334	17.97233	-619.61853	302.71527	-14.53595	-752.08148	343.04938	-51.90447	-883.15326	803.83459	-314.03922	-963.72919	581.51660	-264.62073	-985.10809	683.21375	-247.86835	-1005.23828	520.98419	-216.72444	-909.47400	387.61905	-285.04480	-936.05731	157.16232	-234.81049	-971.26361	261.49826	-196.95287	-847.20105	47.53085	-190.97122	-1143.35266	49.15879	-244.30739	-1068.49976	39.51108	-176.81456	-1036.38928	45.02517	-286.99628	-957.69806	24.57437	-274.49365	-1016.12244	109.64822	-217.95767	-1107.01697	38.62187	-195.61777	-1095.78772	45.32548	-282.58203	-482.45090	325.99701	-62.92532	-570.19604	41.45112	-62.72781	-541.57837	126.36718	-121.33911	-509.31329	124.59377	-0.96006	-469.65137	217.71483	-14.02589	-586.53162	180.51762	-44.07347	-559.07098	81.79181	-101.67361	-532.99261	81.05643	-16.66790	-824.15479	1361.49695	7.02492	0.00000	0.00000	0.00000	-815.60370	1351.55835	-344.74323	-690.52374	975.05872	-139.62109	200.00000	0.00000	0.00000	0.00000	0.00000	-200.00000	0.00000	200.00000	0.00000
249.00000	3.02500	-933.31213	1344.63086	-170.89166	-796.16241	1454.98022	-170.66992	-851.50482	1397.83301	-347.73364	-860.45172	1407.55896	15.84427	-930.37714	1227.26672	-162.13535	-709.06598	1264.91565	-149.80817	-916.11279	1000.90729	-285.01544	-909.41724	987.77112	-11.88355	-701.04230	978.12927	-171.26678	-698.80273	975.99432	-111.60830	-704.31934	1046.74817	-144.43216	-769.32513	1071.99683	-426.89713	-843.55133	815.28864	-413.79507	-863.03137	823.25775	-379.41193	-795.69269	816.14844	-409.40295	-814.28479	1085.92627	104.39098	-920.92908	832.03845	109.30729	-871.75934	821.73975	105.52386	-930.27448	855.95367	72.65736	-873.20483	801.39227	35.57975	-935.16675	557.36060	20.45756	-968.06616	677.91406	-2.36893	-968.12927	457.86649	-27.36798	-855.78754	442.73187	16.33547	-643.62933	304.94379	-15.59383	-774.80713	347.34637	-54.70855	-891.67230	804.75201	-314.67728	-968.27631	581.34076	-264.58453	-991.15320	682.59009	-247.52353	-1008.55634	520.36115	-216.52966	-912.17151	387.84241	-285.19125	-936.78070	157.14316	-234.73892	-972.55084	261.15445	-196.77139	-847.27466	47.63388	-190.99854	-1143.42664	48.84114	-244.33994	-1068.55640	39.20417	-176.81599	-1036.47424	44.92153	-286.99557	-957.71057	24.62268	-274.48404	-1016.31079	109.48869	-217.87454	-1107.22681	38.39445	-195.57449	-1096.02271	45.13545	-282.48651	-501.95786	326.53076	-57.05311	-601.83423	45.67326	-68.66704	-565.35425	130.68544	-123.27855	-541.05615	125.35872	-1.14532	-497.30624	216.30940	-9.65817	-613.31744	184.81554	-47.90429	-586.47400	86.35098	-105.86118	-566.25745	82.45554	-19.55529	-834.32159	1362.39111	6.83318	0.00000	0.00000	0.00000	-827.43854	1353.78906	-345.00677	-699.92249	977.06177	-141.43755	200.00000	0.00000	0.00000	0.00000	0.00000	-200.00000	0.00000	200.00000	0.00000
250.00000	3.03333	-944.08612	1345.95508	-170.43387	-807.54468	1456.61438	-170.68488	-863.36279	1399.79919	-347.62161	-870.46228	1408.39221	16.05125	-940.95483	1228.43762	-162.03761	-719.49725	1266.81201	-151.12132	-926.59875	1002.14777	-285.52469	-918.06061	988.93451	-12.10237	-710.70062	980.04309	-173.03734	-708.11548	977.80688	-113.38298	-714.02600	1048.59668	-146.14638	-780.21838	1074.42834	-427.96439	-853.98218	817.82965	-414.68375	-872.80560	825.39374	-379.80051	-805.67249	818.73206	-410.40814	-822.08221	1086.60010	103.11091	-925.40240	831.53143	108.25495	-875.96265	821.74371	103.99845	-935.19482	855.34906	71.45592	-885.88129	803.44440	34.39701	-956.11902	561.98444	18.50365	-985.41486	682.48334	-5.87336	-990.75433	462.91266	-30.30997	-879.27765	445.99121	14.21105	-667.63800	306.36261	-16.57802	-795.93561	351.53394	-58.64905	-900.23334	805.73322	-315.30042	-972.87048	581.16699	-264.73148	-997.14746	681.95453	-247.38290	-1011.76318	519.71014	-216.36064	-914.86884	388.04001	-285.31293	-937.53687	157.28497	-234.78479	-973.78754	260.93848	-196.64897	-847.44379	47.95339	-191.03957	-1143.51282	48.53601	-244.40117	-1068.69922	38.97867	-176.78058	-1036.66895	44.76628	-286.97159	-957.76941	24.59555	-274.51166	-1016.47571	109.32849	-217.83640	-1107.39612	38.16557	-195.54240	-1095.93884	44.93058	-282.55664	-522.85590	325.05130	-52.00199	-634.65155	49.26582	-73.14958	-591.28064	133.38402	-125.09103	-574.45349	125.18022	-1.86425	-526.05157	214.02028	-6.24107	-641.12189	188.52269	-51.71227	-614.96979	89.55316	-108.82656	-600.27673	84.13389	-21.59306	-844.24054	1363.53015	6.83049	0.00000	0.00000	0.00000	-839.14856	1356.01868	-345.06491	-709.40808	978.92499	-143.21016	200.00000	0.00000	0.00000	0.00000	0.00000	-200.00000	0.00000	200.00000	0.00000
